<?xml version="1.0" encoding="utf-8"?>
<!-- Generator: Adobe Illustrator 15.1.0, SVG Export Plug-In . SVG Version: 6.00 Build 0)  -->
<!DOCTYPE svg PUBLIC "-//W3C//DTD SVG 1.1//EN" "http://www.w3.org/Graphics/SVG/1.1/DTD/svg11.dtd">
<svg version="1.1"
	 id="svg2" xmlns:dc="http://purl.org/dc/elements/1.1/" xmlns:cc="http://creativecommons.org/ns#" xmlns:rdf="http://www.w3.org/1999/02/22-rdf-syntax-ns#" xmlns:svg="http://www.w3.org/2000/svg" xmlns:sodipodi="http://sodipodi.sourceforge.net/DTD/sodipodi-0.dtd" xmlns:inkscape="http://www.inkscape.org/namespaces/inkscape" inkscape:version="0.48.4 r9939" sodipodi:docname="New document 1"
	 xmlns="http://www.w3.org/2000/svg" xmlns:xlink="http://www.w3.org/1999/xlink" x="0px" y="0px" width="744.094px"
	 height="1052.363px" viewBox="0 0 744.094 1052.363" enable-background="new 0 0 744.094 1052.363" xml:space="preserve">
<sodipodi:namedview  inkscape:cy="923.30095" inkscape:cx="222.85714" inkscape:zoom="2.84375" borderopacity="1.0" bordercolor="#666666" showgrid="false" pagecolor="#ffffff" id="base" inkscape:window-y="25" inkscape:window-x="25" inkscape:window-height="742" inkscape:window-width="1330" inkscape:current-layer="layer1" inkscape:document-units="px" inkscape:pageshadow="2" inkscape:pageopacity="0.0" inkscape:window-maximized="0">
	</sodipodi:namedview>
<g id="flowRoot5753-3" transform="matrix(0.468663,0,0,-0.46943,104.75837,721.16531)">
</g>
<g id="flowRoot5753-9-6" transform="matrix(0.468663,0,0,-0.46943,181.28796,721.36888)">
</g>
<text transform="matrix(0.9984 0 0 1 302.0791 52.4146)" font-family="'SansSerifBold'" font-size="23.4715">B</text>
<rect id="rect5861-6" x="38.509" y="54.083" width="148.383" height="0.63"/>
<g id="flowRoot5753-0-2" transform="matrix(0.468663,0,0,-0.46943,41.455729,721.36888)">
</g>
<g id="flowRoot5753" transform="matrix(0.468663,0,0,-0.46943,260.98362,720.65065)">
</g>
<g id="flowRoot5753-9" transform="matrix(0.468663,0,0,-0.46943,337.51321,720.85422)">
</g>
<text transform="matrix(0.9984 0 0 1 99.998 50.9478)" font-family="'SansSerifBold'" font-size="23.4715">A</text>
<rect id="rect5861" x="233.79" y="54.727" width="148.384" height="0.63"/>
<g id="flowRoot5753-0" transform="matrix(0.468663,0,0,-0.46943,197.68098,720.85422)">
</g>
<g>
	<g>
		<g id="g5627">
			<path id="path5633" inkscape:connector-curvature="0" fill="#4FA0CA" stroke="#000000" stroke-miterlimit="10" d="
				M344.728,193.529h-14.585v-3.368h14.585V193.529z"/>
			<path id="path5635" inkscape:connector-curvature="0" fill="#4FA0CA" stroke="#000000" stroke-miterlimit="10" d="
				M346.653,203.354h-18.748v-8.709h18.748V203.354z"/>
			<path id="path5637" inkscape:connector-curvature="0" fill="#CCCCCC" stroke="#000000" stroke-miterlimit="10" d="
				M343.731,199.128h-12.444v-5.599h12.444V199.128z"/>
			<g id="g5639" transform="translate(90.2998,499.4297)">
				<path id="path5641" inkscape:connector-curvature="0" fill="#4FA0CA" d="M256.353-300.66l-3.852-5.241l1.562-5.149l2.29,0.646
					V-300.66z"/>
			</g>
			<g id="g5643" transform="translate(90.2998,499.4297)">
				<path id="path5645" inkscape:connector-curvature="0" fill="none" stroke="#000000" stroke-miterlimit="10" d="M256.353-300.66
					l-3.852-5.241l1.562-5.149l2.29,0.646V-300.66z"/>
			</g>
			<g id="g5647" transform="translate(38.061,497.6328)">
				<path id="path5649" inkscape:connector-curvature="0" fill="#4FA0CA" d="M289.844-298.217l3.979-6.245l-1.689-4.145l-2.29,0.646
					V-298.217z"/>
			</g>
			<g id="g5651" transform="translate(38.061,497.6328)">
				<path id="path5653" inkscape:connector-curvature="0" fill="none" stroke="#000000" stroke-miterlimit="10" d="M289.844-298.217
					l3.979-6.245l-1.689-4.145l-2.29,0.646V-298.217z"/>
			</g>
			<g id="g5655" transform="translate(78.0737,484.687)">
				<path id="path5657" inkscape:connector-curvature="0" fill="#CCCCCC" d="M264.192-280.617l-5.257,0.931l0.501-9.456l4.756,2.364
					V-280.617z"/>
			</g>
			<g id="g5659" transform="translate(78.0737,484.687)">
				<path id="path5661" inkscape:connector-curvature="0" fill="none" stroke="#000000" stroke-miterlimit="10" d="M264.192-280.617
					l-5.257,0.931l0.501-9.456l4.756,2.364V-280.617z"/>
			</g>
			<g id="g5663" transform="translate(63.4268,482.0962)">
				<path id="path5665" inkscape:connector-curvature="0" fill="#CCCCCC" d="M273.582-277.095l-4.971-0.931v-6.161l5.472-2.364
					L273.582-277.095z"/>
			</g>
			<g id="g5667" transform="translate(63.4268,482.0962)">
				<path id="path5669" inkscape:connector-curvature="0" fill="none" stroke="#000000" stroke-miterlimit="10" d="M273.582-277.095
					l-4.971-0.931v-6.161l5.472-2.364L273.582-277.095z"/>
			</g>
			<path id="path5671" inkscape:connector-curvature="0" fill="#4FA0CA" stroke="#000000" stroke-miterlimit="10" d="
				M343.374,204.07h-2.217v-6.161h2.217V204.07z"/>
			<path id="path5673" inkscape:connector-curvature="0" fill="#4FA0CA" stroke="#000000" stroke-miterlimit="10" d="
				M333.146,203.64h-2.217v-6.161h2.217V203.64z"/>
			<g id="g5675" transform="translate(81.1626,513.6494)">
				<path id="path5677" inkscape:connector-curvature="0" fill="#4FA0CA" d="M262.211-319.991v-1.204h-1.358v-1.074h-9.155v1.074
					h-3.146v1.204v0.454v3.367h1.859v-3.367h2.789v-0.583h7.224v0.583h0.895v3.797h1.895v-4.251H262.211z"/>
			</g>
			<g id="g5679" transform="translate(81.1626,513.6494)">
				<path id="path5681" inkscape:connector-curvature="0" fill="none" stroke="#000000" stroke-miterlimit="10" d="M262.211-319.991
					v-1.204h-1.358v-1.074h-9.155v1.074h-3.146v1.204v0.454v3.367h1.859v-3.367h2.789v-0.583h7.224v0.583h0.895v3.797h1.895v-4.251
					H262.211z"/>
			</g>
			<g id="g5683" transform="translate(41.3701,508.8594)">
				<path id="path5685" inkscape:connector-curvature="0" fill="#4FA0CA" d="M287.723-313.479l-1.416,0.201l-1.824-12.91
					l1.416-0.201L287.723-313.479z"/>
			</g>
			<g id="g5687" transform="translate(41.3701,508.8594)">
				<path id="path5689" inkscape:connector-curvature="0" fill="none" stroke="#000000" stroke-miterlimit="10" d="M287.723-313.479
					l-1.416,0.201l-1.824-12.91l1.416-0.201L287.723-313.479z"/>
			</g>
			<g id="g5691" transform="translate(92.4219,507.4214)">
				<path id="path5693" inkscape:connector-curvature="0" fill="#4FA0CA" d="M254.993-311.524l-1.431,0.009l-0.092-14.54l1.43-0.01
					L254.993-311.524z"/>
			</g>
			<g id="g5695" transform="translate(92.4219,507.4214)">
				<path id="path5697" inkscape:connector-curvature="0" fill="none" stroke="#000000" stroke-miterlimit="10" d="M254.993-311.524
					l-1.431,0.009l-0.092-14.54l1.43-0.01L254.993-311.524z"/>
			</g>
			<path id="path5699" inkscape:connector-curvature="0" fill="#4FA0CA" stroke="#000000" stroke-miterlimit="10" d="
				M329.714,201.634h-2.646v-5.728h2.646V201.634z"/>
			<path id="path5701" inkscape:connector-curvature="0" fill="#4FA0CA" stroke="#000000" stroke-miterlimit="10" d="
				M347.415,202.351h-3.04v-6.444h3.04V202.351z"/>
			<path id="path5703" inkscape:connector-curvature="0" fill="#4FA0CA" stroke="#000000" stroke-miterlimit="10" d="
				M329.714,201.634h-1.645v-2.506h1.645V201.634z"/>
			<path id="path5705" inkscape:connector-curvature="0" fill="#4FA0CA" stroke="#000000" stroke-miterlimit="10" d="
				M343.803,202.351h2.093v-2.543h-2.093V202.351z"/>
			<path id="path5707" inkscape:connector-curvature="0" fill="#4FA0CA" stroke="#000000" stroke-miterlimit="10" d="
				M341.535,191.212h-8.511v-3.368h8.511V191.212z"/>
			<g id="g5709" transform="translate(55.8545,539.687)">
				<path id="path5711" inkscape:connector-curvature="0" fill="#4FA0CA" d="M278.436-355.389v4.082h0.715v2.365h4.292v-2.365h0.644
					v-4.082H278.436z"/>
			</g>
			<g id="g5713" transform="translate(55.8545,539.687)">
				<path id="path5715" inkscape:connector-curvature="0" fill="none" stroke="#000000" stroke-miterlimit="10" d="M278.436-355.389
					v4.082h0.715v2.365h4.292v-2.365h0.644v-4.082H278.436z"/>
			</g>
			<g id="g5717" transform="translate(68.7397,536.6982)">
				<path id="path5719" inkscape:connector-curvature="0" fill="#CCCCCC" d="M270.176-351.325h-3.624v2.149h0.93v2.793h2.003v-2.793
					h0.691V-351.325z"/>
			</g>
			<g id="g5721" transform="translate(68.7397,536.6982)">
				<path id="path5723" inkscape:connector-curvature="0" fill="none" stroke="#000000" stroke-miterlimit="10" d="M270.176-351.325
					h-3.624v2.149h0.93v2.793h2.003v-2.793h0.691V-351.325z"/>
			</g>
			<path id="path5725" inkscape:connector-curvature="0" fill="#B3E8FF" stroke="#000000" stroke-miterlimit="10" d="
				M342.266,195.582h-3.35v-1.36h3.35V195.582z"/>
			<path id="path5727" inkscape:connector-curvature="0" fill="#B3E8FF" stroke="#000000" stroke-miterlimit="10" d="
				M335.388,195.582h-3.35v-1.36h3.35V195.582z"/>
		</g>
	</g>
	<text transform="matrix(0 -1.0016 1 0 323.9897 204.6636)" fill="#4FA0CA" font-family="'Arial-BoldMT'" font-size="6.2571">O</text>
	<text transform="matrix(0 -1.0016 1 0 323.9897 201.3291)" fill="#4FA0CA" font-family="'Arial-BoldMT'" font-size="6.2571">P</text>
	<text transform="matrix(0 -1.0016 1 0 323.9897 198.0264)" fill="#4FA0CA" font-family="'Arial-BoldMT'" font-size="6.2571">T</text>
	<text transform="matrix(0 -1.0016 1 0 323.9897 194.7603)" fill="#4FA0CA" font-family="'Arial-BoldMT'" font-size="6.2571">I</text>
	<text transform="matrix(0 -1.0016 1 0 323.9897 193.4634)" fill="#4FA0CA" font-family="'Arial-BoldMT'" font-size="6.2571">M</text>
	<text transform="matrix(0 -1.0016 1 0 323.9897 188.1113)" fill="#4FA0CA" font-family="'Arial-BoldMT'" font-size="6.2571">U</text>
	<text transform="matrix(0 -1.0016 1 0 323.9897 184.8213)" fill="#4FA0CA" font-family="'Arial-BoldMT'" font-size="6.2571">S</text>
	<text transform="matrix(0.9984 0 0 1 353.873 202.7544)" font-family="'MyriadPro-Regular'" font-size="5.8679">U</text>
	<text transform="matrix(0.9984 0 0 1 357.7802 202.7544)" font-family="'MyriadPro-Regular'" font-size="5.8679">p</text>
	<text transform="matrix(0.9984 0 0 1 361.2314 202.7544)" font-family="'MyriadPro-Regular'" font-size="5.8679">d</text>
	<text transform="matrix(0.9984 0 0 1 364.6523 202.7544)" font-family="'MyriadPro-Regular'" font-size="5.8679">a</text>
	<text transform="matrix(0.9984 0 0 1 367.5703 202.7544)" font-family="'MyriadPro-Regular'" font-size="5.8679">t</text>
	<text transform="matrix(0.9984 0 0 1 369.5908 202.7544)" font-family="'MyriadPro-Regular'" font-size="5.8679">e</text>
	<text transform="matrix(0.9984 0 0 1 372.644 202.7544)" font-family="'MyriadPro-Regular'" font-size="5.8679">d 9-18-13</text>
</g>
<rect id="rect6354" x="13.017" y="25.169" fill="none" stroke="#000000" stroke-width="0.4437" width="391.109" height="185.814"/>
<rect x="38.738" y="59.664" fill="none" width="70.778" height="145"/>
<text transform="matrix(1 0 0 1 48.2461 68.1836)"><tspan x="0" y="0" font-family="'MyriadPro-Regular'" font-size="12">VREG-00822</tspan><tspan x="6.12" y="14.4" font-family="'MyriadPro-Regular'" font-size="12">CAP-00811</tspan><tspan x="8.532" y="28.8" font-family="'MyriadPro-Regular'" font-size="12">RES-07828</tspan><tspan x="8.532" y="43.2" font-family="'MyriadPro-Regular'" font-size="12">RES-00824</tspan><tspan x="8.532" y="57.6" font-family="'MyriadPro-Regular'" font-size="12">RES-07856</tspan><tspan x="8.532" y="72" font-family="'MyriadPro-Regular'" font-size="12">RES-00818</tspan><tspan x="7.68" y="86.4" font-family="'MyriadPro-Regular'" font-size="12">DIO-00821</tspan><tspan x="7.68" y="100.8" font-family="'MyriadPro-Regular'" font-size="12">DIO-00819</tspan><tspan x="7.68" y="115.2" font-family="'MyriadPro-Regular'" font-size="12">DIO-00862</tspan><tspan x="7.68" y="129.6" font-family="'MyriadPro-Regular'" font-size="12">DIO-00809</tspan></text>
<rect x="21.318" y="59.664" fill="none" width="21.778" height="145"/>
<text transform="matrix(1 0 0 1 26.0517 68.1836)"><tspan x="0" y="0" fill="#4D4D4D" font-family="'MyriadPro-Regular'" font-size="12">10</tspan><tspan x="0" y="14.4" fill="#4D4D4D" font-family="'MyriadPro-Regular'" font-size="12">09</tspan><tspan x="0" y="28.8" fill="#4D4D4D" font-family="'MyriadPro-Regular'" font-size="12">08</tspan><tspan x="0" y="43.2" fill="#4D4D4D" font-family="'MyriadPro-Regular'" font-size="12">07</tspan><tspan x="0" y="57.6" fill="#4D4D4D" font-family="'MyriadPro-Regular'" font-size="12">06</tspan><tspan x="0" y="72" fill="#4D4D4D" font-family="'MyriadPro-Regular'" font-size="12">05</tspan><tspan x="0" y="86.4" fill="#4D4D4D" font-family="'MyriadPro-Regular'" font-size="12">04</tspan><tspan x="0" y="100.8" fill="#4D4D4D" font-family="'MyriadPro-Regular'" font-size="12">03</tspan><tspan x="0" y="115.2" fill="#4D4D4D" font-family="'MyriadPro-Regular'" font-size="12">02</tspan><tspan x="0" y="129.6" fill="#4D4D4D" font-family="'MyriadPro-Regular'" font-size="12">01</tspan></text>
<rect x="121.861" y="59.664" fill="none" width="79.222" height="145"/>
<text transform="matrix(1 0 0 1 121.8613 68.1836)"><tspan x="0" y="0" fill="#002BB2" font-family="'MyriadPro-Regular'" font-size="12">3.3V</tspan><tspan x="0" y="14.4" fill="#002BB2" font-family="'MyriadPro-Regular'" font-size="12">10uF -16V</tspan><tspan x="0" y="28.8" fill="#002BB2" font-family="'MyriadPro-Regular'" font-size="12">100k ohm</tspan><tspan x="0" y="43.2" fill="#002BB2" font-family="'MyriadPro-Regular'" font-size="12">10k ohm</tspan><tspan x="0" y="57.6" fill="#002BB2" font-family="'MyriadPro-Regular'" font-size="12">1k ohm</tspan><tspan x="0" y="72" fill="#002BB2" font-family="'MyriadPro-Regular'" font-size="12">330 ohm</tspan><tspan x="0" y="86.4" fill="#002BB2" font-family="'MyriadPro-Regular'" font-size="12">LED GRN 0603</tspan><tspan x="0" y="100.8" fill="#002BB2" font-family="'MyriadPro-Regular'" font-size="12">LED RED 0603</tspan><tspan x="0" y="115.2" fill="#002BB2" font-family="'MyriadPro-Regular'" font-size="12">LED GRN 1206</tspan><tspan x="0" y="129.6" fill="#002BB2" font-family="'MyriadPro-Regular'" font-size="12">LED RED 1206</tspan></text>
<rect x="241.781" y="59.664" fill="none" width="70.778" height="145"/>
<text transform="matrix(1 0 0 1 259.8208 68.1836)"><tspan x="0" y="0" font-family="'MyriadPro-Regular'" font-size="12">RES-07853</tspan><tspan x="-2.412" y="14.4" font-family="'MyriadPro-Regular'" font-size="12">CAP-00810</tspan><tspan x="-2.412" y="28.8" font-family="'MyriadPro-Regular'" font-size="12">CAP-07876</tspan><tspan x="-0.852" y="43.2" font-family="'MyriadPro-Regular'" font-size="12">DIO-09646</tspan><tspan x="-2.412" y="57.6" font-family="'MyriadPro-Regular'" font-size="12">CAP-00868</tspan><tspan x="-12.576" y="72" font-family="'MyriadPro-Regular'" font-size="12">SWCH-08179</tspan><tspan x="-0.852" y="86.4" font-family="'MyriadPro-Regular'" font-size="12">DIO-08053</tspan><tspan x="-12.576" y="100.8" font-family="'MyriadPro-Regular'" font-size="12">SWCH-08247</tspan></text>
<rect x="224.361" y="59.664" fill="none" width="21.778" height="118.018"/>
<text transform="matrix(1 0 0 1 229.0947 68.1836)"><tspan x="0" y="0" fill="#4D4D4D" font-family="'MyriadPro-Regular'" font-size="12">14</tspan><tspan x="0" y="14.4" fill="#4D4D4D" font-family="'MyriadPro-Regular'" font-size="12">15</tspan><tspan x="0" y="28.8" fill="#4D4D4D" font-family="'MyriadPro-Regular'" font-size="12">16</tspan><tspan x="0" y="43.2" fill="#4D4D4D" font-family="'MyriadPro-Regular'" font-size="12">17</tspan><tspan x="0" y="57.6" fill="#4D4D4D" font-family="'MyriadPro-Regular'" font-size="12">18</tspan><tspan x="0" y="72" fill="#4D4D4D" font-family="'MyriadPro-Regular'" font-size="12">19</tspan><tspan x="0" y="86.4" fill="#4D4D4D" font-family="'MyriadPro-Regular'" font-size="12">21</tspan><tspan x="0" y="100.8" fill="#4D4D4D" font-family="'MyriadPro-Regular'" font-size="12">22</tspan></text>
<rect x="324.904" y="59.664" fill="none" width="79.221" height="145"/>
<text transform="matrix(1 0 0 1 324.9043 68.1836)"><tspan x="0" y="0" fill="#002BB2" font-family="'MyriadPro-Regular'" font-size="12">22k ohm</tspan><tspan x="0" y="14.4" fill="#002BB2" font-family="'MyriadPro-Regular'" font-size="12">0.1uF -25V</tspan><tspan x="0" y="28.8" fill="#002BB2" font-family="'MyriadPro-Regular'" font-size="12">22pF</tspan><tspan x="0" y="43.2" fill="#002BB2" font-family="'MyriadPro-Regular'" font-size="12">BAS16</tspan><tspan x="0" y="57.6" fill="#002BB2" font-family="'MyriadPro-Regular'" font-size="12">1uF</tspan><tspan x="0" y="72" fill="#002BB2" font-family="'MyriadPro-Regular'" font-size="12">AYZ Switch</tspan><tspan x="0" y="86.4" fill="#002BB2" font-family="'MyriadPro-Regular'" font-size="12">MBRA140</tspan><tspan x="0" y="100.8" fill="#002BB2" font-family="'MyriadPro-Regular'" font-size="12">RESET Switch</tspan></text>
</svg>
